<svg xmlns="http://www.w3.org/2000/svg" xmlns:xlink="http://www.w3.org/1999/xlink" width="2480" height="520" viewBox="0 0 2480 520">
  <defs>
    <clipPath id="clip-bg">
      <rect width="2480" height="520"/>
    </clipPath>
  </defs>
  <g id="bg" clip-path="url(#clip-bg)">
    <rect width="2480" height="520" fill="#fff"/>
    <circle id="Ellipse_5" data-name="Ellipse 5" cx="11.5" cy="11.5" r="11.5" transform="translate(1121 369)" fill="#f3827c"/>
    <circle id="Ellipse_17" data-name="Ellipse 17" cx="11.5" cy="11.5" r="11.5" transform="translate(1781 135)" fill="#f3827c"/>
    <g id="Groupe_1" data-name="Groupe 1" transform="matrix(0.819, 0.574, -0.574, 0.819, 523.921, -382.091)">
      <path id="Tracé_3" data-name="Tracé 3" d="M537.266,570.589c12.109-4.133,17.173,17.538,32.628,12.266" transform="translate(29.971 0)" fill="none" stroke="#35a8e0" stroke-linecap="round" stroke-linejoin="round" stroke-width="5"/>
      <path id="Tracé_4" data-name="Tracé 4" d="M508.36,580.452c12.111-4.133,17.177,17.538,32.628,12.266" transform="translate(7.927 7.522)" fill="none" stroke="#35a8e0" stroke-linecap="round" stroke-linejoin="round" stroke-width="5"/>
      <path id="Tracé_5" data-name="Tracé 5" d="M545.193,570.361c-12.111,4.13-2.873,24.379-18.322,29.651" transform="translate(22.044 0.228)" fill="none" stroke="#35a8e0" stroke-linecap="round" stroke-linejoin="round" stroke-width="5"/>
      <path id="Tracé_6" data-name="Tracé 6" d="M497.965,597.048" transform="translate(0 20.58)" fill="none" stroke="#35a8e0" stroke-linecap="round" stroke-linejoin="round" stroke-width="5"/>
      <path id="Tracé_7" data-name="Tracé 7" d="M516.287,580.224c-12.109,4.133-2.868,24.38-18.322,29.654" transform="translate(0 7.75)" fill="none" stroke="#35a8e0" stroke-linecap="round" stroke-linejoin="round" stroke-width="5"/>
    </g>
    <g id="Groupe_39" data-name="Groupe 39" transform="matrix(0.719, -0.695, 0.695, 0.719, -576.425, 100.335)">
      <path id="Tracé_3-2" data-name="Tracé 3" d="M537.266,570.589c12.109-4.133,17.173,17.538,32.628,12.266" transform="translate(29.971 0)" fill="none" stroke="#35a8e0" stroke-linecap="round" stroke-linejoin="round" stroke-width="5"/>
      <path id="Tracé_4-2" data-name="Tracé 4" d="M508.36,580.452c12.111-4.133,17.177,17.538,32.628,12.266" transform="translate(7.927 7.522)" fill="none" stroke="#35a8e0" stroke-linecap="round" stroke-linejoin="round" stroke-width="5"/>
      <path id="Tracé_5-2" data-name="Tracé 5" d="M545.193,570.361c-12.111,4.13-2.873,24.379-18.322,29.651" transform="translate(22.044 0.228)" fill="none" stroke="#35a8e0" stroke-linecap="round" stroke-linejoin="round" stroke-width="5"/>
      <path id="Tracé_6-2" data-name="Tracé 6" d="M497.965,597.048" transform="translate(0 20.58)" fill="none" stroke="#35a8e0" stroke-linecap="round" stroke-linejoin="round" stroke-width="5"/>
      <path id="Tracé_7-2" data-name="Tracé 7" d="M516.287,580.224c-12.109,4.133-2.868,24.38-18.322,29.654" transform="translate(0 7.75)" fill="none" stroke="#35a8e0" stroke-linecap="round" stroke-linejoin="round" stroke-width="5"/>
    </g>
    <g id="Groupe_40" data-name="Groupe 40" transform="matrix(0.719, -0.695, 0.695, 0.719, -554.425, 120.335)">
      <path id="Tracé_3-3" data-name="Tracé 3" d="M537.266,570.589c12.109-4.133,17.173,17.538,32.628,12.266" transform="translate(29.971 0)" fill="none" stroke="#35a8e0" stroke-linecap="round" stroke-linejoin="round" stroke-width="5"/>
      <path id="Tracé_4-3" data-name="Tracé 4" d="M508.36,580.452c12.111-4.133,17.177,17.538,32.628,12.266" transform="translate(7.927 7.522)" fill="none" stroke="#35a8e0" stroke-linecap="round" stroke-linejoin="round" stroke-width="5"/>
      <path id="Tracé_5-3" data-name="Tracé 5" d="M545.193,570.361c-12.111,4.13-2.873,24.379-18.322,29.651" transform="translate(22.044 0.228)" fill="none" stroke="#35a8e0" stroke-linecap="round" stroke-linejoin="round" stroke-width="5"/>
      <path id="Tracé_6-3" data-name="Tracé 6" d="M497.965,597.048" transform="translate(0 20.58)" fill="none" stroke="#35a8e0" stroke-linecap="round" stroke-linejoin="round" stroke-width="5"/>
      <path id="Tracé_7-3" data-name="Tracé 7" d="M516.287,580.224c-12.109,4.133-2.868,24.38-18.322,29.654" transform="translate(0 7.75)" fill="none" stroke="#35a8e0" stroke-linecap="round" stroke-linejoin="round" stroke-width="5"/>
    </g>
    <g id="Groupe_38" data-name="Groupe 38" transform="matrix(0.819, 0.574, -0.574, 0.819, 1934.921, -614.091)">
      <path id="Tracé_3-4" data-name="Tracé 3" d="M537.266,570.589c12.109-4.133,17.173,17.538,32.628,12.266" transform="translate(29.971 0)" fill="none" stroke="#6fb094" stroke-linecap="round" stroke-linejoin="round" stroke-width="5"/>
      <path id="Tracé_4-4" data-name="Tracé 4" d="M508.36,580.452c12.111-4.133,17.177,17.538,32.628,12.266" transform="translate(7.927 7.522)" fill="none" stroke="#6fb094" stroke-linecap="round" stroke-linejoin="round" stroke-width="5"/>
      <path id="Tracé_5-4" data-name="Tracé 5" d="M545.193,570.361c-12.111,4.13-2.873,24.379-18.322,29.651" transform="translate(22.044 0.228)" fill="none" stroke="#6fb094" stroke-linecap="round" stroke-linejoin="round" stroke-width="5"/>
      <path id="Tracé_6-4" data-name="Tracé 6" d="M497.965,597.048" transform="translate(0 20.58)" fill="none" stroke="#6fb094" stroke-linecap="round" stroke-linejoin="round" stroke-width="5"/>
      <path id="Tracé_7-4" data-name="Tracé 7" d="M516.287,580.224c-12.109,4.133-2.868,24.38-18.322,29.654" transform="translate(0 7.75)" fill="none" stroke="#6fb094" stroke-linecap="round" stroke-linejoin="round" stroke-width="5"/>
    </g>
    <g id="Groupe_3" data-name="Groupe 3" transform="translate(889.601 70.624) rotate(2)">
      <path id="Tracé_21" data-name="Tracé 21" d="M1082.261,413.867l20.817-20.185,27.936-2.065" transform="translate(-1082.261 -324.867)" fill="none" stroke="#e5007e" stroke-linecap="round" stroke-linejoin="round" stroke-width="2"/>
      <path id="Tracé_22" data-name="Tracé 22" d="M1103.508,404.17l20.817-20.185,27.936-2.065" transform="translate(-1054.755 -337.42)" fill="none" stroke="#e5007e" stroke-linecap="round" stroke-linejoin="round" stroke-width="2"/>
      <path id="Tracé_23" data-name="Tracé 23" d="M1124.755,394.474l20.819-20.186,27.936-2.065" transform="translate(-1027.25 -349.973)" fill="none" stroke="#e5007e" stroke-linecap="round" stroke-linejoin="round" stroke-width="2"/>
      <path id="Tracé_24" data-name="Tracé 24" d="M1146,384.775l20.815-20.184,27.936-2.065" transform="translate(-999.743 -362.526)" fill="none" stroke="#e5007e" stroke-linecap="round" stroke-linejoin="round" stroke-width="2"/>
    </g>
    <circle id="Ellipse_12" data-name="Ellipse 12" cx="8" cy="8" r="8" transform="translate(1504 284)" fill="#6fb094"/>
    <circle id="Ellipse_16" data-name="Ellipse 16" cx="8" cy="8" r="8" transform="translate(907 308)" fill="#6fb094"/>
    <path id="Tracé_8" data-name="Tracé 8" d="M578.088,76.367c.044-.123.106-.238.148-.366A26.851,26.851,0,1,0,527.5,58.409c-.046.125-.069.251-.111.376" transform="matrix(-0.454, 0.891, -0.891, -0.454, 775.512, -297.226)" fill="none" stroke="#f0d266" stroke-width="11"/>
    <path id="Tracé_69" data-name="Tracé 69" d="M578.088,76.367c.044-.123.106-.238.148-.366A26.851,26.851,0,1,0,527.5,58.409c-.046.125-.069.251-.111.376" transform="translate(-260.007 116.338) rotate(20)" fill="none" stroke="#6fb094" stroke-width="11"/>
    <path id="Tracé_2" data-name="Tracé 2" d="M557.435,61.694c.026-.073.063-.141.088-.217a15.913,15.913,0,0,0-30.07-10.426c-.027.074-.041.149-.066.223" transform="translate(1135.613 378.654)" fill="none" stroke="#35a8e0" stroke-linejoin="round" stroke-width="5"/>
    <path id="Tracé_68" data-name="Tracé 68" d="M557.435,61.694c.026-.073.063-.141.088-.217a15.913,15.913,0,0,0-30.07-10.426c-.027.074-.041.149-.066.223" transform="translate(1012.613 56.654)" fill="none" stroke="#35a8e0" stroke-linejoin="round" stroke-width="5"/>
    <path id="Tracé_67" data-name="Tracé 67" d="M557.435,61.694c.026-.073.063-.141.088-.217a15.913,15.913,0,0,0-30.07-10.426c-.027.074-.041.149-.066.223" transform="translate(2420.187 -81.578) rotate(112)" fill="none" stroke="#6fb094" stroke-linejoin="round" stroke-width="5"/>
  </g>
</svg>
