<svg xmlns="http://www.w3.org/2000/svg" xmlns:xlink="http://www.w3.org/1999/xlink" width="1803" height="2160" viewBox="0 0 1803 2160">
  <defs>
    <style>
      .cls-1 {
        fill: #2d2d2d;
        font-size: 1000px;
        font-family: AbsoluteNeonScriptRegular, Absolute Neon Script;
      }

      .cls-2, .cls-4 {
        fill: #e40078;
      }

      .cls-3 {
        fill: #428e8e;
      }

      .cls-4 {
        opacity: 0.84;
      }

      .cls-5 {
        filter: url(#Tracé_89);
      }

      .cls-6 {
        filter: url(#Tracé_88);
      }

      .cls-7 {
        filter: url(#Tracé_86);
      }

      .cls-8 {
        filter: url(#Tracé_87);
      }

      .cls-9 {
        filter: url(#Club_Roquette);
      }
    </style>
    <filter id="Club_Roquette" x="0" y="0" width="1803" height="2160" filterUnits="userSpaceOnUse">
      <feOffset dx="8" dy="7" input="SourceAlpha"/>
      <feGaussianBlur stdDeviation="5" result="blur"/>
      <feFlood flood-color="#428e8e" flood-opacity="0.569"/>
      <feComposite operator="in" in2="blur"/>
      <feComposite in="SourceGraphic"/>
    </filter>
    <filter id="Tracé_87" x="342.648" y="1901.189" width="1210.423" height="219.952" filterUnits="userSpaceOnUse">
      <feOffset dx="15" dy="3" input="SourceAlpha"/>
      <feGaussianBlur stdDeviation="15.5" result="blur-2"/>
      <feFlood flood-color="#428e8e" flood-opacity="0.529"/>
      <feComposite operator="in" in2="blur-2"/>
      <feComposite in="SourceGraphic"/>
    </filter>
    <filter id="Tracé_86" x="307.905" y="1888.595" width="1210.423" height="219.952" filterUnits="userSpaceOnUse">
      <feOffset dx="15" dy="3" input="SourceAlpha"/>
      <feGaussianBlur stdDeviation="15.5" result="blur-3"/>
      <feFlood flood-color="#428e8e" flood-opacity="0.529"/>
      <feComposite operator="in" in2="blur-3"/>
      <feComposite in="SourceGraphic"/>
    </filter>
    <filter id="Tracé_88" x="35" y="469.984" width="301.227" height="278.184" filterUnits="userSpaceOnUse">
      <feOffset dy="3" input="SourceAlpha"/>
      <feGaussianBlur stdDeviation="4" result="blur-4"/>
      <feFlood flood-color="#428e8e" flood-opacity="0.588"/>
      <feComposite operator="in" in2="blur-4"/>
      <feComposite in="SourceGraphic"/>
    </filter>
    <filter id="Tracé_89" x="1480.976" y="818.076" width="206.675" height="194.253" filterUnits="userSpaceOnUse">
      <feOffset dy="3" input="SourceAlpha"/>
      <feGaussianBlur stdDeviation="4" result="blur-5"/>
      <feFlood flood-color="#e40078" flood-opacity="0.588"/>
      <feComposite operator="in" in2="blur-5"/>
      <feComposite in="SourceGraphic"/>
    </filter>
  </defs>
  <g id="Groupe_157" data-name="Groupe 157" transform="translate(-335 -177)">
    <g id="Groupe_155" data-name="Groupe 155">
      <g class="cls-9" transform="matrix(1, 0, 0, 1, 335, 177)">
        <text id="Club_Roquette-2" data-name="Club
Roquette" class="cls-1" transform="translate(880 850)"><tspan x="-417" y="0">Club</tspan><tspan x="-841" y="840">Roquette</tspan></text>
      </g>
      <g id="Groupe_50" data-name="Groupe 50" transform="translate(673 2089.677)">
        <g id="Groupe_46" data-name="Groupe 46" transform="matrix(1, 0.017, -0.017, 1, 2.763, 0)">
          <g class="cls-8" transform="matrix(1, -0.02, 0.02, 1, -374.09, -1906.44)">
            <path id="Tracé_87-2" data-name="Tracé 87" class="cls-2" d="M0,0,1064.951,2.426l50.407,66.247L1.165,54.649,0,0" transform="translate(374.15 2003.06) rotate(-3)"/>
          </g>
          <g class="cls-7" transform="matrix(1, -0.02, 0.02, 1, -374.09, -1906.44)">
            <path id="Tracé_86-2" data-name="Tracé 86" class="cls-3" d="M0,0,1064.951,2.426l50.407,66.247L1.165,54.649,0,0" transform="translate(339.4 1990.47) rotate(-3)"/>
          </g>
        </g>
      </g>
    </g>
    <g class="cls-6" transform="matrix(1, 0, 0, 1, 335, 177)">
      <path id="Tracé_88-2" data-name="Tracé 88" class="cls-3" d="M117.5,0l117.5,203.372H0Z" transform="translate(47 535.84) rotate(-14)"/>
    </g>
    <g class="cls-5" transform="matrix(1, 0, 0, 1, 335, 177)">
      <path id="Tracé_89-2" data-name="Tracé 89" class="cls-4" d="M74.424,0l74.424,128.811H0Z" transform="matrix(0.95, 0.33, -0.33, 0.95, 1534.91, 827.08)"/>
    </g>
  </g>
</svg>
