<svg xmlns="http://www.w3.org/2000/svg" xmlns:xlink="http://www.w3.org/1999/xlink" width="92.001" height="92" viewBox="0 0 92.001 92">
  <defs>
    <linearGradient id="linear-gradient" x1="0.084" y1="0.916" x2="0.915" y2="-0.604" gradientUnits="objectBoundingBox">
      <stop offset="0" stop-color="#6fb094"/>
      <stop offset="0.849" stop-color="#91b3df"/>
      <stop offset="1" stop-color="#91b3df"/>
    </linearGradient>
    <linearGradient id="linear-gradient-2" x1="0.166" y1="0.976" x2="1.724" y2="-0.455" gradientUnits="objectBoundingBox">
      <stop offset="0" stop-color="#6fb094"/>
      <stop offset="1" stop-color="#91b3df"/>
    </linearGradient>
    <linearGradient id="linear-gradient-3" x1="0.146" y1="0.854" x2="1" y2="0" xlink:href="#linear-gradient-2"/>
  </defs>
  <g id="instagram" transform="translate(0 0)">
    <path id="Tracé_56" data-name="Tracé 56" d="M91.724,27.035a33.771,33.771,0,0,0-2.139-11.166A22.545,22.545,0,0,0,84.28,7.721a22.552,22.552,0,0,0-8.148-5.307A33.765,33.765,0,0,0,64.966.278C60.06.053,58.493,0,46,0S31.94.053,27.035.276A33.775,33.775,0,0,0,15.869,2.415,22.545,22.545,0,0,0,7.721,7.721a22.549,22.549,0,0,0-5.307,8.147A33.769,33.769,0,0,0,.278,27.034C.053,31.94,0,33.507,0,46S.053,60.06.278,64.966A33.763,33.763,0,0,0,2.416,76.132a22.542,22.542,0,0,0,5.306,8.147,22.539,22.539,0,0,0,8.148,5.306,33.753,33.753,0,0,0,11.166,2.139C31.942,91.947,33.508,92,46,92s14.06-.053,18.966-.277a33.757,33.757,0,0,0,11.166-2.139A23.517,23.517,0,0,0,89.585,76.132a33.761,33.761,0,0,0,2.139-11.166C91.947,60.059,92,58.493,92,46s-.053-14.06-.277-18.966Zm-8.28,37.554A25.451,25.451,0,0,1,81.86,73.13a15.233,15.233,0,0,1-8.73,8.73,25.451,25.451,0,0,1-8.542,1.584c-4.849.222-6.3.268-18.588.268s-13.738-.046-18.589-.268a25.46,25.46,0,0,1-8.542-1.584,14.256,14.256,0,0,1-5.289-3.441A14.25,14.25,0,0,1,10.14,73.13a25.451,25.451,0,0,1-1.584-8.542c-.221-4.85-.268-6.305-.268-18.588s.047-13.738.268-18.589a25.47,25.47,0,0,1,1.584-8.542,14.261,14.261,0,0,1,3.441-5.29,14.242,14.242,0,0,1,5.29-3.441,25.446,25.446,0,0,1,8.542-1.584c4.85-.221,6.305-.268,18.588-.268h0c12.283,0,13.738.047,18.589.269A25.456,25.456,0,0,1,73.13,10.14a14.263,14.263,0,0,1,5.289,3.441,14.242,14.242,0,0,1,3.441,5.29,25.428,25.428,0,0,1,1.584,8.542c.221,4.85.268,6.305.268,18.588s-.046,13.738-.268,18.589Zm0,0" fill="url(#linear-gradient)"/>
    <path id="Tracé_57" data-name="Tracé 57" d="M148.16,124.539a23.622,23.622,0,1,0,23.622,23.622A23.622,23.622,0,0,0,148.16,124.539Zm0,38.955a15.334,15.334,0,1,1,15.334-15.334A15.333,15.333,0,0,1,148.16,163.494Zm0,0" transform="translate(-102.161 -102.161)" fill="url(#linear-gradient-2)"/>
    <path id="Tracé_58" data-name="Tracé 58" d="M372.97,94.146a5.52,5.52,0,1,1-5.52-5.521A5.52,5.52,0,0,1,372.97,94.146Zm0,0" transform="translate(-296.895 -72.7)" fill="url(#linear-gradient-3)"/>
  </g>
</svg>
