<svg xmlns="http://www.w3.org/2000/svg" xmlns:xlink="http://www.w3.org/1999/xlink" width="103.563" height="77.672" viewBox="0 0 103.563 77.672">
  <defs>
    <linearGradient id="linear-gradient" x1="1.545" y1="-0.962" x2="0.416" y2="0.848" gradientUnits="objectBoundingBox">
      <stop offset="0" stop-color="#91b3df"/>
      <stop offset="1" stop-color="#6fb094"/>
    </linearGradient>
    <linearGradient id="linear-gradient-2" x1="-0.134" y1="1.677" x2="-0.095" y2="1.621" gradientUnits="objectBoundingBox">
      <stop offset="0" stop-opacity="0.2"/>
      <stop offset="1" stop-opacity="0"/>
    </linearGradient>
    <linearGradient id="linear-gradient-3" x1="-0.093" y1="1.501" x2="-0.043" y2="1.47" gradientUnits="objectBoundingBox">
      <stop offset="0" stop-color="#fff" stop-opacity="0.2"/>
      <stop offset="1" stop-opacity="0"/>
    </linearGradient>
  </defs>
  <g id="envelope" transform="translate(0 -64)">
    <path id="Tracé_60" data-name="Tracé 60" d="M94.932,64H8.63A8.639,8.639,0,0,0,0,72.63v60.412a8.639,8.639,0,0,0,8.63,8.63h86.3a8.639,8.639,0,0,0,8.63-8.63V72.63A8.639,8.639,0,0,0,94.932,64Z" fill="url(#linear-gradient)"/>
    <path id="Tracé_61" data-name="Tracé 61" d="M320.322,132.011c11.209-10.193,28.493-26.006,34.214-31.242a4.17,4.17,0,0,1,.242,1.193v60.412a4.169,4.169,0,0,1-.228,1.125C348.784,158,331.494,141.607,320.322,132.011Z" transform="translate(-255.53 -29.332)" fill="#f2f2f2"/>
    <path id="Tracé_62" data-name="Tracé 62" d="M125.428,85.333a4.1,4.1,0,0,1,.9.181c-7.472,6.838-32.247,29.5-40.917,37.315a4.328,4.328,0,0,1-6.264,0c-8.669-7.81-33.445-30.476-40.916-37.312a4.124,4.124,0,0,1,.9-.182h86.3Z" transform="translate(-30.496 -17.018)" fill="#fafafa"/>
    <path id="Tracé_63" data-name="Tracé 63" d="M21.562,163.5a4.159,4.159,0,0,1-.228-1.125V101.964a4.168,4.168,0,0,1,.242-1.193C27.294,106,44.581,121.819,55.79,132.012,44.617,141.609,27.326,158,21.562,163.5Z" transform="translate(-17.019 -29.333)" fill="#f2f2f2"/>
    <path id="Tracé_64" data-name="Tracé 64" d="M38.83,301.437a4.128,4.128,0,0,1-.973-.2c5.956-5.678,23.358-22.166,34.334-31.556,1.431,1.3,2.738,2.481,3.768,3.41A8.619,8.619,0,0,0,88,273.1c1.031-.929,2.339-2.113,3.771-3.412,10.977,9.389,28.376,25.876,34.334,31.556a4.124,4.124,0,0,1-.973.2Z" transform="translate(-30.2 -164.08)" fill="#fafafa"/>
    <path id="Tracé_65" data-name="Tracé 65" d="M55.149,133.392c.539-.469,1.078-.939,1.592-1.381C45.532,121.818,28.246,106,22.527,100.77Zm61.827-32.622c-5.721,5.236-23,21.049-34.214,31.242,11.172,9.6,28.462,25.988,34.228,31.487a4.16,4.16,0,0,0,.228-1.125V101.963A4.176,4.176,0,0,0,116.977,100.77ZM75.771,138.348a8.619,8.619,0,0,1-12.041,0c-1.03-.928-2.337-2.112-3.768-3.41-.565.483-1.157,1-1.753,1.515l30.238,30.238H112.9a4.123,4.123,0,0,0,.973-.2c-5.958-5.68-23.357-22.167-34.334-31.556C78.11,136.235,76.8,137.419,75.771,138.348Z" transform="translate(-17.97 -29.333)" fill="url(#linear-gradient-2)"/>
    <path id="Tracé_66" data-name="Tracé 66" d="M94.932,64H8.63A8.639,8.639,0,0,0,0,72.63v60.412a8.639,8.639,0,0,0,8.63,8.63h86.3a8.639,8.639,0,0,0,8.63-8.63V72.63A8.639,8.639,0,0,0,94.932,64Z" fill="url(#linear-gradient-3)"/>
  </g>
</svg>
